<?xml version="1.0" encoding="utf-8"?>
<!-- Generator: Adobe Illustrator 17.0.0, SVG Export Plug-In . SVG Version: 6.00 Build 0)  -->
<!DOCTYPE svg PUBLIC "-//W3C//DTD SVG 1.1//EN" "http://www.w3.org/Graphics/SVG/1.1/DTD/svg11.dtd">
<svg version="1.1" id="Layer_1" xmlns="http://www.w3.org/2000/svg" xmlns:xlink="http://www.w3.org/1999/xlink" x="0px" y="0px"
	 width="792px" height="612px" viewBox="0 0 792 612" enable-background="new 0 0 792 612" xml:space="preserve">
<polygon fill="#DB7793" stroke="#FFFFFF" stroke-width="1.6667" stroke-miterlimit="10" points="288.57,14.667 225.607,179.481 
	353.385,179.481 "/>
<polygon stroke="#FFFFFF" stroke-width="1.1423" stroke-miterlimit="10" points="499.005,292.444 542.159,179.481 454.581,179.481 
	"/>
<polygon fill="#8F4C61" stroke="#FFFFFF" stroke-width="1.6667" stroke-miterlimit="10" points="405.871,292.444 449.025,179.481 
	361.447,179.481 "/>
<g>
	<path d="M496.409,148.654c0,1.169-0.308,2.581-0.922,4.24c-1.536,4.058-4.425,7.253-8.665,9.588
		c-3.872,2.088-8.113,3.135-12.722,3.135c-7.559,0-13.367-2.858-17.424-8.574c-3.503-4.977-5.255-11.4-5.255-19.266
		c0-6.514,1.014-12.63,3.043-18.346c2.273-6.514,5.623-11.615,10.048-15.303c3.503-2.888,7.067-4.333,10.694-4.333
		c5.223,0,9.187,2.275,11.892,6.821c2.212,3.688,3.319,8.329,3.319,13.921c0,2.52-0.645,5.685-1.936,9.495
		c-1.537,4.671-3.258,7.005-5.163,7.005c-2.152,0-3.779-1.351-4.886-4.056c0.614-0.428,1.475-1.136,2.581-2.119
		c1.229-1.352,1.844-3.995,1.844-7.929c0-3.81-0.4-7.036-1.199-9.679c-1.23-3.995-3.258-5.993-6.084-5.993
		c-1.968,0-4.119,1.261-6.453,3.78c-1.783,1.906-3.289,4.026-4.517,6.361c-3.012,5.9-4.517,13.245-4.517,22.033
		c0,12.783,4.793,19.175,14.381,19.175c4.117,0,7.375-1.167,9.772-3.503c0.982-1.045,2.427-3.228,4.333-6.546
		c1.291-2.396,2.673-3.595,4.149-3.595c0.982,0,1.843,0.386,2.581,1.152C496.041,146.888,496.409,147.733,496.409,148.654z"/>
	<path d="M539.091,161.376c-6.637,2.397-13.643,3.595-21.019,3.595c-5.776,0-9.832-2.028-12.168-6.084
		c-1.783-3.135-2.673-7.804-2.673-14.012c0-3.626,0.291-9.002,0.876-16.133c0.583-7.129,0.876-12.507,0.876-16.133
		c0-0.676-0.063-1.752-0.185-3.227c-0.124-1.475-0.185-2.581-0.185-3.319c0-0.738,0.061-1.567,0.185-2.489
		c1.229-1.475,2.734-2.213,4.517-2.213c1.72,0,3.042,1.107,3.963,3.319c0.737,1.721,1.107,3.564,1.107,5.531
		c0,4.181-0.4,10.387-1.198,18.622c-0.801,8.236-1.2,14.413-1.2,18.529c0,7.253,2.059,10.879,6.177,10.879
		c1.844,0,4.486-0.63,7.928-1.891c3.441-1.258,6.084-1.89,7.928-1.89c1.72,0,3.042,0.77,3.965,2.305
		C538.723,157.997,539.091,159.533,539.091,161.376z"/>
</g>
</svg>
